<svg xmlns="http://www.w3.org/2000/svg" aria-hidden="true"><defs><symbol id="icon-sobre" viewBox="0 0 43 32">
<path d="M38.667 0H4C1.794 0 0 1.794 0 4v24c0 2.206 1.794 4 4 4h34.667c2.206 0 4-1.794 4-4V4c0-2.206-1.794-4-4-4zm0 2.667c.181 0 .353.038.511.103L21.334 18.236 3.49 2.77a1.32 1.32 0 0 1 .511-.103h34.667zm0 26.666H4A1.334 1.334 0 0 1 2.667 28V5.587L20.46 21.008a1.335 1.335 0 0 0 1.748 0L40.001 5.587V28c0 .736-.598 1.333-1.333 1.333z"/></symbol><symbol id="icon-telefono-inteligente" viewBox="0 0 20 32">
<path d="M17 0H3C1.346 0 0 1.346 0 3v26c0 1.654 1.346 3 3 3h14c1.654 0 3-1.346 3-3V3c0-1.654-1.346-3-3-3zM3 2h14a1 1 0 0 1 1 1v21H2V3a1 1 0 0 1 1-1zm14 28H3a1 1 0 0 1-1-1v-3h16v3a1 1 0 0 1-1 1z"/>
<path d="M4.707 27.478c.391.365.391.956 0 1.321s-1.024.365-1.414 0c-.391-.365-.391-.956 0-1.321s1.024-.365 1.414 0z"/></symbol><symbol id="icon-Logo-7" viewBox="0 0 64 32">
<path d="M14.579 12.794h-.002c-1.448 0-2.622 1.043-2.622 2.33v.002c0 1.287 1.174 2.33 2.622 2.33h.002c1.448 0 2.622-1.043 2.622-2.33v-.002c0-1.287-1.174-2.33-2.622-2.33zM33.929 12.049c-.004-1.787-.805-3.5-2.226-4.764s-3.349-1.976-5.36-1.98c-2.012.003-3.94.715-5.362 1.979s-2.224 2.977-2.228 4.765v9.855s15.175-1.502 15.177-9.854v-.002zM6.641 25.139c.004 1.244.561 2.435 1.55 3.315s2.33 1.375 3.729 1.379c1.399-.004 2.739-.499 3.729-1.378s1.547-2.07 1.551-3.314v-6.857S6.641 19.33 6.641 25.14zm5.28 1.229c-.273 0-.541-.072-.768-.207s-.405-.327-.509-.551c-.105-.225-.132-.472-.079-.71s.185-.457.378-.629.44-.289.708-.336.546-.023.799.07.469.25.62.453.233.44.233.683c.001.162-.035.322-.104.472s-.171.286-.299.4c-.128.115-.281.205-.449.268s-.348.094-.53.094v-.005zM21.573 24.168v2.575h-.531v-2.575h.531zm1.026 1.1v.414h-1.171v-.414h1.171zm.124-1.1v.416h-1.295v-.416h1.295zm2.423 1.228v.122c0 .196-.026.371-.08.527s-.128.288-.225.398a.968.968 0 0 1-.347.249 1.1 1.1 0 0 1-.444.087c-.162 0-.31-.029-.444-.087a1.008 1.008 0 0 1-.347-.249 1.16 1.16 0 0 1-.228-.398 1.63 1.63 0 0 1-.08-.527v-.122c0-.197.027-.373.08-.527.053-.156.128-.288.225-.398a.979.979 0 0 1 .347-.251c.134-.058.282-.087.444-.087a1.1 1.1 0 0 1 .444.087c.134.058.25.142.347.251.098.11.173.242.226.398.054.154.081.33.081.527zm-.536.122v-.126c0-.137-.012-.257-.037-.361s-.061-.191-.11-.262a.462.462 0 0 0-.177-.159c-.07-.037-.149-.055-.239-.055s-.169.018-.239.055a.472.472 0 0 0-.175.159c-.047.071-.083.158-.108.262s-.037.224-.037.361v.126c0 .136.012.256.037.361a.795.795 0 0 0 .11.264.485.485 0 0 0 .416.216.472.472 0 0 0 .414-.216.839.839 0 0 0 .108-.264c.025-.105.037-.225.037-.361zm2.259.552a.347.347 0 0 0-.021-.124.24.24 0 0 0-.074-.103c-.037-.032-.088-.063-.154-.094s-.152-.063-.256-.096a3.34 3.34 0 0 1-.333-.127 1.37 1.37 0 0 1-.276-.164.74.74 0 0 1-.187-.221.608.608 0 0 1-.067-.292c0-.107.024-.205.071-.292a.667.667 0 0 1 .198-.226.929.929 0 0 1 .301-.147c.117-.034.245-.051.384-.051.19 0 .355.034.497.103s.251.162.329.281a.722.722 0 0 1 .119.409h-.527a.398.398 0 0 0-.048-.198.323.323 0 0 0-.142-.136.508.508 0 0 0-.237-.049.553.553 0 0 0-.23.042.31.31 0 0 0-.138.111.272.272 0 0 0-.046.156.23.23 0 0 0 .032.119c.022.035.055.068.099.099s.097.06.161.087c.064.027.137.054.221.08.14.042.264.09.37.143.107.053.197.113.269.179s.126.141.163.225a.7.7 0 0 1 .055.285.618.618 0 0 1-.254.526.877.877 0 0 1-.295.14 1.42 1.42 0 0 1-.384.048c-.127 0-.253-.016-.377-.049a1.13 1.13 0 0 1-.338-.154.744.744 0 0 1-.331-.639h.532c0 .08.012.148.037.203s.06.1.104.134c.046.034.1.059.163.074a.91.91 0 0 0 .209.023.563.563 0 0 0 .226-.039.285.285 0 0 0 .133-.108.287.287 0 0 0 .044-.156zm2.043-1.902v2.575h-.529v-2.575h.529zm.792 0v.416h-2.101v-.416h2.101zm2.031 2.162v.414h-1.371v-.414h1.371zm-1.197-2.162v2.575h-.531v-2.575h.531zm1.018 1.049v.403h-1.192v-.403h1.192zm.177-1.049v.416h-1.369v-.416h1.369zm.312 0h.96c.197 0 .366.029.508.088.143.059.252.146.329.262s.115.258.115.426a.82.82 0 0 1-.071.355.663.663 0 0 1-.196.246 1.022 1.022 0 0 1-.295.156l-.168.088h-.835l-.004-.414h.621c.093 0 .17-.016.232-.049s.107-.079.138-.138a.422.422 0 0 0 .048-.205c0-.083-.015-.154-.046-.214s-.077-.106-.14-.138a.515.515 0 0 0-.235-.048h-.43v2.16h-.531v-2.575zm1.439 2.576-.587-1.148.561-.004.594 1.127v.025h-.568zm2.786-.919h-.656v-.414h.656a.555.555 0 0 0 .248-.049c.064-.034.11-.081.14-.142s.044-.128.044-.203c0-.077-.015-.148-.044-.214s-.076-.119-.14-.159-.146-.06-.248-.06h-.472v2.16h-.531v-2.575h1.003c.202 0 .374.037.518.11.145.072.256.172.333.299s.115.273.115.437c0 .166-.038.31-.115.432s-.187.215-.333.281a1.237 1.237 0 0 1-.518.099zm3.061.505v.414H37.96v-.414h1.371zm-1.198-2.162v2.575h-.531v-2.575h.531zm1.019 1.049v.403H37.96v-.403h1.192zm.177-1.049v.416H37.96v-.416h1.369zm1.498 0v2.575h-.529v-2.575h.529zm.793 0v.416h-2.101v-.416h2.101zm2.03 2.162v.414h-1.371v-.414h1.371zm-1.197-2.162v2.575h-.531v-2.575h.531zm1.019 1.049v.403H42.28v-.403h1.192zm.176-1.049v.416h-1.369v-.416h1.369zm.312 0h.96c.197 0 .366.029.508.088.143.059.252.146.329.262s.115.258.115.426a.82.82 0 0 1-.071.355.663.663 0 0 1-.196.246 1.022 1.022 0 0 1-.295.156l-.168.088h-.835l-.004-.414h.621c.093 0 .17-.016.232-.049s.107-.079.138-.138a.422.422 0 0 0 .048-.205c0-.083-.015-.154-.046-.214s-.077-.106-.14-.138a.515.515 0 0 0-.235-.048h-.43v2.16h-.531v-2.575zm1.44 2.576-.587-1.148.561-.004.594 1.127v.025H45.4zm2.221-.674a.347.347 0 0 0-.021-.124.24.24 0 0 0-.074-.103c-.037-.032-.088-.063-.154-.094s-.152-.063-.256-.096a3.34 3.34 0 0 1-.333-.127 1.37 1.37 0 0 1-.276-.164.74.74 0 0 1-.187-.221.608.608 0 0 1-.067-.292c0-.107.024-.205.071-.292a.667.667 0 0 1 .198-.226.929.929 0 0 1 .301-.147c.117-.034.245-.051.384-.051.19 0 .355.034.497.103s.251.162.329.281a.722.722 0 0 1 .119.409h-.527a.398.398 0 0 0-.048-.198.323.323 0 0 0-.142-.136.508.508 0 0 0-.237-.049.553.553 0 0 0-.23.042.31.31 0 0 0-.138.111.272.272 0 0 0-.046.156.23.23 0 0 0 .032.119c.022.035.055.068.099.099s.097.06.161.087c.064.027.137.054.221.08.14.042.264.09.37.143.107.053.197.113.269.179s.126.141.163.225a.7.7 0 0 1 .055.285.618.618 0 0 1-.254.526.877.877 0 0 1-.295.14 1.42 1.42 0 0 1-.384.048c-.127 0-.253-.016-.377-.049a1.13 1.13 0 0 1-.338-.154.744.744 0 0 1-.331-.639h.532c0 .08.012.148.037.203s.06.1.104.134c.046.034.1.059.163.074a.91.91 0 0 0 .209.023.563.563 0 0 0 .226-.039.285.285 0 0 0 .133-.108.287.287 0 0 0 .044-.156z"/></symbol><symbol id="icon-antena-1" viewBox="0 0 32 32">
<path d="m30.773 22.098-8.443-8.505.937-4.615c.242.094.499.144.758.146h.006a2.159 2.159 0 1 0-2.008-1.435l-4.96.605L8.972.161a.534.534 0 0 0-.377-.16.532.532 0 0 0-.373.155L6.709 1.66a.534.534 0 0 0 0 .754l.814.826a14.943 14.943 0 0 0 2.519 17.663.513.513 0 0 0 .146.098c-.034.18-.051.364-.052.547v6.187h-6.4a2.67 2.67 0 0 0-2.667 2.667v1.067c0 .295.239.533.533.533h24.533a.533.533 0 0 0 .533-.533v-1.067a2.67 2.67 0 0 0-2.667-2.667h-6.4v-2.742a15.09 15.09 0 0 0 3.049.32 14.854 14.854 0 0 0 7.04-1.783l.818.823a.534.534 0 0 0 .377.16.532.532 0 0 0 .373-.155l1.513-1.504a.534.534 0 0 0 0-.754zM23.28 6.233a1.066 1.066 0 1 1 .752 1.822h-.003a1.067 1.067 0 0 1-.747-1.823h-.002zm-1.256 3.505-.598 2.946-1.175-1.182 1.774-1.763zm-.605-.902-1.92 1.909-1.485-1.493 3.405-.415zM24.004 28.8a1.6 1.6 0 0 1 1.6 1.6v.533H2.137V30.4a1.6 1.6 0 0 1 1.6-1.6h20.267zm-7.467-2.133v1.067h-5.333v-1.067h5.333zM11.204 25.6v-4.053c0-1.294 1.196-2.347 2.667-2.347s2.667 1.053 2.667 2.347V25.6h-5.333zm6.4-1.696v-2.357c0-1.882-1.675-3.413-3.733-3.413a3.8 3.8 0 0 0-3.281 1.786A13.87 13.87 0 0 1 8.311 4.033l18.602 18.708a13.818 13.818 0 0 1-9.309 1.163zm11.289-.684L7.836 2.039l.755-.752 7.935 7.98c.004 0 .006.007.01.01l13.115 13.191-.757.752z"/>
<path fill="#2196f3" d="M13.876 20.267h-.005a1.6 1.6 0 1 0-.004 3.2h.005a1.6 1.6 0 1 0 .004-3.2zm.373 1.978a.534.534 0 0 1-.752-.756.534.534 0 0 1 .373-.155.532.532 0 0 1 .373.911h.005z"/></symbol><symbol id="icon-astronauta-1" viewBox="0 0 32 32">
<path d="M31.974 4.524a.534.534 0 0 0-.43-.363l-1.91-.278-.855-1.731c-.179-.365-.777-.365-.956 0l-.855 1.731-1.91.278a.535.535 0 0 0-.296.91l1.383 1.348-.326 1.903c-.034.2.048.402.212.522a.53.53 0 0 0 .562.04l1.709-.899 1.709.899a.536.536 0 0 0 .775-.563l-.326-1.903 1.383-1.348a.536.536 0 0 0 .135-.547zm-2.463 1.327a.534.534 0 0 0-.153.472l.191 1.114-1-.526a.533.533 0 0 0-.498 0l-1.001.526.191-1.114a.534.534 0 0 0-.153-.472l-.81-.789 1.119-.163a.532.532 0 0 0 .402-.292l.5-1.013.5 1.013a.535.535 0 0 0 .402.292l1.119.163-.809.789zM26.134 20.522h-1.067v1.067h1.067v-1.067zM26.134 22.656h-1.067v1.067h1.067v-1.067zM27.2 21.589h-1.067v1.067H27.2v-1.067zM25.067 21.589H24v1.067h1.067v-1.067zM22.4 26.389h-1.067v1.067H22.4v-1.067zM22.4 28.522h-1.067v1.067H22.4v-1.067zM23.467 27.456H22.4v1.067h1.067v-1.067zM21.333 27.456h-1.067v1.067h1.067v-1.067zM16 24.256h-1.067v1.067H16v-1.067zM16 26.389h-1.067v1.067H16v-1.067zM17.067 25.322H16v1.067h1.067v-1.067zM14.933 25.322h-1.067v1.067h1.067v-1.067zM5.867 6.122H4.8v1.067h1.067V6.122zM5.867 8.255H4.8v1.067h1.067V8.255z" style="fill:var(--color4, #2196f3)"/>
<path d="M6.933 7.189H5.866v1.067h1.067V7.189zM4.8 7.189H3.733v1.067H4.8V7.189z" style="fill:var(--color4, #2196f3)"/>
<path d="M24.715 15.531a1.775 1.775 0 0 0-1.188-.705 1.778 1.778 0 0 0-1.34.352l-1.252.96-1.898 1.417-1.358-.541c2.421-1.086 4.114-3.508 4.114-6.32 0-3.823-3.123-6.933-6.961-6.933s-6.961 3.11-6.961 6.933a6.86 6.86 0 0 0 1.12 3.758l-2.764-.024h-.005c-.009 0-.015.004-.023.005a.515.515 0 0 0-.155.031l-.038.013c-.006.003-.013.003-.019.006l-3.233 1.596h-.001L.86 16.99a.397.397 0 0 0-.063.035 1.78 1.78 0 0 0-.598 2.296c.22.429.595.745 1.056.889a1.776 1.776 0 0 0 1.378-.128l1.388-.738 2.264-1.169 1.357-.008L2.2 23.583l-.002.001-1.339 1.333c-.316.315-.49.732-.49 1.178s.174.863.49 1.179c.325.323.752.485 1.179.485s.854-.162 1.18-.485l1.314-1.309 1.741-1.3.901.897-1.762 1.754-.002.001-1.339 1.333c-.316.315-.49.732-.49 1.178s.174.863.49 1.179c.325.323.753.485 1.18.485s.855-.162 1.18-.485l3.482-3.467.001-.002 1.01-1-.004-.004c.006-.006.015-.009.022-.015l5.166-5.658 3.471.494a.52.52 0 0 0 .262-.033c.018-.006.033-.015.05-.023.019-.01.039-.015.058-.027l3.213-2.133c.012-.008.018-.021.029-.029.013-.01.029-.014.041-.026l1.271-1.191c.662-.62.753-1.635.212-2.362zM2.13 19.142a.714.714 0 0 1-.558.052.717.717 0 0 1-.213-1.26l1.314-.632.449 1.313-.992.528zm3.498-1.828-1.548.8-.439-1.283 2.027-1.001-.04 1.484zm15.099-6.621a5.79 5.79 0 0 1-.599 2.559l-4.181-1.899a1.863 1.863 0 0 0-.788-1.388l1.464-4.86c2.378.756 4.105 2.975 4.105 5.588zm-11.789 0c0-3.235 2.644-5.867 5.894-5.867.253 0 .5.021.745.052l-1.432 4.754c-.019-.001-.037-.006-.057-.006-1.033 0-1.873.837-1.873 1.867s.84 1.867 1.873 1.867c.694 0 1.294-.383 1.618-.945l3.862 1.755a5.894 5.894 0 0 1-4.737 2.39c-3.25 0-5.894-2.632-5.894-5.867zm5.956.8c0 .441-.362.8-.806.8s-.806-.359-.806-.8c0-.441.362-.8.806-.8s.806.359.806.8zM2.465 26.518a.608.608 0 0 1-.854.001.592.592 0 0 1 0-.844l.962-.958.851.848-.959.955zm3.214 3.733a.608.608 0 0 1-.855.001.592.592 0 0 1 0-.844l.963-.959.852.848-.96.955zm3.481-3.469-.002.001-1.765 1.76-.852-.848 1.763-1.755.002-.001c.04-.04.065-.088.09-.135.007-.014.02-.026.026-.04.017-.041.019-.085.026-.129.003-.025.014-.047.014-.073 0-.036-.013-.07-.02-.106-.006-.032-.006-.065-.019-.095a.55.55 0 0 0-.091-.138c-.01-.012-.014-.027-.025-.038h-.001l-.001-.002-1.607-1.6c-.017-.017-.039-.024-.058-.038a.507.507 0 0 0-.087-.058.515.515 0 0 0-.093-.033.507.507 0 0 0-.103-.02.5.5 0 0 0-.095.005.53.53 0 0 0-.104.02.477.477 0 0 0-.094.045c-.02.011-.042.015-.061.029L4.23 24.857l-.901-.897 2.399-2.386 4.361 4.289-.928.919zm6.819-7.016c-.015-.002-.03.004-.045.003a.556.556 0 0 0-.3.075.492.492 0 0 0-.083.061c-.013.011-.028.017-.04.029l-4.698 5.146-4.328-4.257 2.833-2.818a.534.534 0 0 0-.379-.911l-2.219.013.028-1.607 3.104.027a6.947 6.947 0 0 0 4.981 2.101c.437 0 .864-.045 1.279-.123.04.032.079.065.13.085l2.41.96.152.758.178.885-3.003-.427zm4.041.178-.313-1.558 1.446-1.08.947 1.256-2.08 1.381zm3.754-2.831-.838.785-.931-1.236.831-.637a.735.735 0 0 1 .543-.143.718.718 0 0 1 .48.284.713.713 0 0 1-.085.947z" style="fill:var(--color3, #212121)"/>
<path d="m13.602 18.544-2.143-2.133a.534.534 0 0 0-.753 0l-2.142 2.133a.537.537 0 0 0 0 .756l2.142 2.133a.536.536 0 0 0 .753 0l2.143-2.133a.535.535 0 0 0 0-.756zm-2.519 1.759-1.387-1.381 1.387-1.381 1.387 1.381-1.387 1.381zM17.164 5.071l-.258 1.036c.071.018 1.738.452 1.738 2.149h1.067c0-2.017-1.666-2.965-2.547-3.185zM19.711 9.322h-1.067v1.067h1.067V9.322z" style="fill:var(--color3, #212121)"/></symbol><symbol id="icon-diagrama-1" viewBox="0 0 32 32">
<path d="M14.926 14.965h1.066v4.798h-1.066v-4.797zM19.19 17.097h1.066v2.665H19.19v-2.665zM10.661 18.696h1.066v1.066h-1.066v-1.066zM7.463 18.163h1.066v1.599H7.463v-1.599z" style="fill:var(--color4, #2196f3)"/>
<path d="M1.599 28.291h25.587a1.6 1.6 0 0 0 1.599-1.599V24.56a1.6 1.6 0 0 0-1.599-1.599h-.533V9.668L29.681 6.8a1.608 1.608 0 1 0-.746-.763L26.654 8.2V6.97a1.6 1.6 0 0 0-1.599-1.599H3.733A1.6 1.6 0 0 0 2.134 6.97v15.992h-.533a1.6 1.6 0 0 0-1.599 1.599v2.132a1.6 1.6 0 0 0 1.599 1.599zM30.384 4.837a.533.533 0 1 1 0 1.067.533.533 0 0 1 0-1.067zM3.198 6.969c0-.294.239-.533.533-.533h21.322c.294 0 .533.239.533.533v2.239l-1.066 1.013V8.035a.533.533 0 0 0-.533-.533H4.797a.533.533 0 0 0-.533.533v13.326c0 .294.239.533.533.533h19.19a.533.533 0 0 0 .533-.533v-9.674l1.066-1.01v12.284H3.198V6.969zm4.798 6.93a1.598 1.598 0 1 0 1.107 2.749l1.853.93a.532.532 0 0 0 .636-.123l3.939-4.431 3.872 2.901a.533.533 0 0 0 .686-.039l3.365-3.188v8.131H5.33V8.569h18.124v2.66l-3.771 3.572-3.904-2.927a.533.533 0 0 0-.718.072l-3.993 4.493-1.493-.746c.011-.064.018-.129.02-.193a1.6 1.6 0 0 0-1.599-1.599zm.533 1.599a.533.533 0 1 1-1.067 0 .533.533 0 0 1 1.067 0zm3.198 8.529h5.331v.533a.533.533 0 0 1-.533.533h-4.264a.533.533 0 0 1-.533-.533v-.533zm-10.661.533c0-.294.239-.533.533-.533h9.062v.533a1.6 1.6 0 0 0 1.599 1.599h4.264a1.6 1.6 0 0 0 1.599-1.599v-.533h9.062c.294 0 .533.239.533.533v2.132a.533.533 0 0 1-.533.533H1.598a.533.533 0 0 1-.533-.533V24.56z"/></symbol><symbol id="icon-Logo-2" viewBox="0 0 64 32">
<path d="M30.257 3.636c.139 0 .288.013.437.025a13.777 13.777 0 0 1 2.182.326V2.258a12.779 12.779 0 0 0-2.207-.352 17.5 17.5 0 0 0-.892-.043h-.258a17.988 17.988 0 0 0-4.429.571 17.948 17.948 0 0 0-4.7 1.912v17.145a19.094 19.094 0 0 1 4.48-1.746 19.514 19.514 0 0 1 3.76-.577h.05c.212-.011.425-.017.643-.018v-1.756c-1.649.021-3.29.239-4.888.649a23.05 23.05 0 0 0-1.698.504l-.611.207V5.386l.261-.126a17.08 17.08 0 0 1 6.349-1.62.505.505 0 0 1 .055 0c.243-.012.487-.018.727-.018h.275c.127.003.254.006.38.014h.082zM33.3 5.403c.383.029.781.043 1.182.043a19.006 19.006 0 0 0 4.657-.597 19.187 19.187 0 0 0 4.478-1.747v16.84c-1.47.856-3.053 1.5-4.701 1.912a18.089 18.089 0 0 1-4.429.57 13.539 13.539 0 0 1-3.36-.396V5.079a13.76 13.76 0 0 0 2.174.325zm8.57.13-.611.206c-.562.189-1.129.358-1.698.508a20.693 20.693 0 0 1-5.075.651c-.399 0-.765-.011-1.12-.034l-.487-.032v13.752l.418.037c.388.034.788.051 1.191.051a16.284 16.284 0 0 0 3.997-.517 16.81 16.81 0 0 0 3.123-1.122l.261-.126V5.534zM21.577 27.351a.9.9 0 0 0-.68-.275.994.994 0 0 0-.392.074.888.888 0 0 0-.502.508.984.984 0 0 0-.07.379v2.291c-.005.161.025.322.09.47a.922.922 0 0 0 .229.307.804.804 0 0 0 .315.163c.111.031.226.047.342.048a.962.962 0 0 0 .948-.964v-.256h-.599v.204a.525.525 0 0 1-.035.204.368.368 0 0 1-.087.129.41.41 0 0 1-.25.087.307.307 0 0 1-.281-.122.543.543 0 0 1-.079-.307v-2.136a.723.723 0 0 1 .073-.342.303.303 0 0 1 .293-.138.317.317 0 0 1 .267.129.485.485 0 0 1 .099.307v.198h.593v-.233a1.1 1.1 0 0 0-.073-.401.928.928 0 0 0-.2-.322zM25.134 27.324a1.07 1.07 0 0 0-.681-.252 1.058 1.058 0 0 0-.357.064.947.947 0 0 0-.548.508c-.06.14-.09.291-.087.444v2.197c-.004.155.026.308.087.45a.886.886 0 0 0 .232.307.928.928 0 0 0 .316.193 1.038 1.038 0 0 0 .714 0c.119-.043.229-.109.324-.193a.938.938 0 0 0 .226-.307c.061-.142.091-.295.087-.45v-2.197a1.076 1.076 0 0 0-.087-.444.99.99 0 0 0-.226-.321zm-.279 2.962a.387.387 0 0 1-.119.317.441.441 0 0 1-.564 0 .389.389 0 0 1-.119-.317v-2.197a.387.387 0 0 1 .119-.317.441.441 0 0 1 .564 0 .389.389 0 0 1 .119.317v2.197zM29.807 31.267v-4.159h-.576l-.756 2.202h-.011l-.762-2.202h-.57v4.159h.594v-2.53h.011l.582 1.789h.296l.587-1.789h.011v2.53h.594zM33.182 27.4a.82.82 0 0 0-.336-.227 1.314 1.314 0 0 0-.431-.064h-.883v4.159h.593v-1.624h.305a1.09 1.09 0 0 0 .535-.114.863.863 0 0 0 .325-.318.989.989 0 0 0 .136-.362 3 3 0 0 0 .032-.473c.006-.2-.014-.399-.058-.594a.896.896 0 0 0-.218-.382zm-.305 1.268a.523.523 0 0 1-.055.216.333.333 0 0 1-.153.146.613.613 0 0 1-.28.052h-.27v-1.414h.305a.558.558 0 0 1 .267.052c.061.035.11.089.139.154.032.073.05.152.052.232v.276c0 .096.006.197 0 .286h-.006zM35.99 27.108h-.486l-.916 4.159h.593l.174-.894h.808l.174.894h.593l-.939-4.159zm-.547 2.699.292-1.508h.011l.29 1.508h-.593zM39.819 29.614h-.011l-.895-2.506h-.57v4.159h.593v-2.501h.012l.906 2.501h.557v-4.159h-.593v2.506zM43.44 27.108l-.477 1.654h-.012l-.477-1.654h-.628l.814 2.401v1.758h.593v-1.758l.814-2.401h-.628z"/></symbol><symbol id="icon-Logo-3" viewBox="0 0 64 32">
<path d="M21.981 29.699c.01 0 .019.002.028.006s.017.008.023.014l.132.126a1.093 1.093 0 0 1-.37.239c-.166.061-.345.09-.525.086a1.399 1.399 0 0 1-.494-.08 1.075 1.075 0 0 1-.372-.226 1.002 1.002 0 0 1-.24-.349 1.154 1.154 0 0 1-.084-.448 1.04 1.04 0 0 1 .345-.798 1.19 1.19 0 0 1 .395-.227c.162-.055.335-.082.509-.08.162-.003.322.021.472.073.13.049.25.117.354.202l-.11.134a.108.108 0 0 1-.028.024.075.075 0 0 1-.044.01.112.112 0 0 1-.048-.014l-.059-.036-.082-.046a.87.87 0 0 0-.26-.08 1.168 1.168 0 0 0-.196-.014 1.071 1.071 0 0 0-.365.06.837.837 0 0 0-.286.169.78.78 0 0 0-.186.269.907.907 0 0 0-.067.355.928.928 0 0 0 .067.36.777.777 0 0 0 .456.434.97.97 0 0 0 .339.057c.067.001.134-.003.201-.011a.796.796 0 0 0 .435-.185.105.105 0 0 1 .063-.023zM25.784 29.066c.002.152-.028.303-.089.445-.054.129-.138.247-.248.345s-.242.176-.389.227a1.6 1.6 0 0 1-1.001 0 1.17 1.17 0 0 1-.387-.227 1 1 0 0 1-.25-.349 1.157 1.157 0 0 1 0-.891 1.04 1.04 0 0 1 .25-.35c.11-.095.242-.17.387-.219a1.573 1.573 0 0 1 1.001 0c.146.052.279.129.388.227a1.031 1.031 0 0 1 .338.793zm-.346 0a.943.943 0 0 0-.063-.358.731.731 0 0 0-.454-.436 1.162 1.162 0 0 0-.728 0 .778.778 0 0 0-.278.169.724.724 0 0 0-.178.267 1.046 1.046 0 0 0 0 .715.724.724 0 0 0 .456.434c.235.076.493.076.728 0a.774.774 0 0 0 .278-.167.748.748 0 0 0 .176-.267.956.956 0 0 0 .063-.358zM28.378 29.441l.035.08a2.03 2.03 0 0 1 .081-.159l.841-1.329c.016-.023.031-.037.048-.041a.228.228 0 0 1 .069-.007h.249v2.161h-.295V28.49a.457.457 0 0 1 0-.074l-.846 1.347c-.011.02-.028.037-.049.049s-.047.018-.072.018h-.048c-.026 0-.051-.006-.072-.018s-.039-.029-.049-.049l-.871-1.356V30.142h-.285v-2.157h.249a.228.228 0 0 1 .069.007c.02.009.037.023.046.041l.859 1.33c.017.025.031.05.043.077zM31.544 29.334v.809h-.329v-2.158h.734c.139-.002.277.014.41.047a.82.82 0 0 1 .29.134c.073.058.13.131.165.212a.647.647 0 0 1 .056.276.594.594 0 0 1-.239.492.833.833 0 0 1-.291.143 1.39 1.39 0 0 1-.397.05l-.398-.006zm0-.232h.398a.906.906 0 0 0 .255-.033.56.56 0 0 0 .184-.093.412.412 0 0 0 .151-.325c.004-.06-.007-.12-.033-.176s-.065-.106-.115-.147a.71.71 0 0 0-.443-.116h-.398v.89zM35.969 30.146h-.26a.119.119 0 0 1-.072-.02.137.137 0 0 1-.043-.05l-.224-.522h-1.124l-.232.522a.12.12 0 0 1-.115.07h-.26l.988-2.161h.342l1.001 2.161zm-1.63-.802h.928l-.392-.88a1.372 1.372 0 0 1-.074-.203l-.038.113a1.634 1.634 0 0 1-.036.092l-.388.878zM37.391 27.995c.02.009.037.023.049.039l1.44 1.629v-1.678h.295v2.161h-.165a.159.159 0 0 1-.068-.013.19.19 0 0 1-.053-.04l-1.439-1.628a.457.457 0 0 1 0 .074v1.606h-.295v-2.161h.175c.02 0 .041.003.059.01zM41.602 29.287v.858h-.329v-.858l-.91-1.302h.295a.119.119 0 0 1 .071.019.17.17 0 0 1 .044.049l.57.84a.813.813 0 0 1 .1.192l.043-.093a.809.809 0 0 1 .056-.099l.561-.845a.233.233 0 0 1 .043-.046.11.11 0 0 1 .071-.021h.298l-.912 1.307zM28.215 24.358c.143.016.288.029.435.04 2.221-.863 4.1-2.276 5.402-4.062s1.969-3.866 1.918-5.98l-2.448-2.127c.498 2.25.265 4.577-.672 6.719s-2.542 4.015-4.635 5.41z"/>
<path d="m27.341 24.259.066.011c2.236-1.39 3.941-3.331 4.895-5.571s1.111-4.678.452-6.998l-3.487-3.029c1.41 2.49 1.978 5.277 1.637 8.036s-1.576 5.378-3.563 7.551zM39.166 16.854c-.592 2.322-2.031 4.417-4.102 5.973-.605.457-1.257.864-1.949 1.216 1.687-.431 3.237-1.192 4.531-2.226s2.298-2.312 2.934-3.735l-1.414-1.227z"/>
<path d="m38.611 16.512-2.013-1.749c-.038 1.994-.691 3.943-1.89 5.644s-2.9 3.092-4.927 4.029h.01c.452 0 .903-.024 1.352-.07 1.894-.672 3.568-1.741 4.871-3.111s2.196-3 2.598-4.743zM27.632 7.395l-2.402-2.09c-2.147.721-3.994 1.988-5.298 3.636s-2.006 3.599-2.013 5.599c.008 2.21.864 4.354 2.433 6.094s3.76 2.975 6.228 3.511c2.203-2.332 3.493-5.213 3.682-8.225s-.732-5.998-2.63-8.525zM44.16 16.19c-.009-2.622-1.211-5.134-3.345-6.988s-5.025-2.899-8.043-2.906a12.802 12.802 0 0 0-4.078.659l14.705 12.777a8.67 8.67 0 0 0 .761-3.541z"/></symbol><symbol id="icon-Logo-5" viewBox="0 0 64 32">
<path d="M16.155 27.062a.863.863 0 0 1 .221.59c.008.14-.019.279-.079.408s-.15.244-.264.337c-.286.198-.64.294-.997.272h-1.753v-3.738H15c.339-.021.675.067.951.248.111.085.199.192.256.314s.084.253.077.386a.823.823 0 0 1-.199.572.945.945 0 0 1-.523.292c.233.039.442.152.592.32zm-2.056-.564h.734a.749.749 0 0 0 .467-.124.418.418 0 0 0 .157-.366c.005-.068-.006-.135-.033-.199s-.069-.12-.123-.167a.756.756 0 0 0-.481-.126h-.722v.981zm1.272 1.434c.059-.047.105-.105.135-.171s.043-.137.038-.208c.004-.072-.009-.144-.04-.211s-.078-.126-.138-.173a.807.807 0 0 0-.499-.135h-.77v1.028h.78a.824.824 0 0 0 .493-.13zM19.665 28.67l-.955-1.461h-.359v1.461h-.822v-3.738h1.556a1.63 1.63 0 0 1 1.083.318c.217.203.349.47.37.754s-.069.565-.254.793a1.297 1.297 0 0 1-.742.38l1.017 1.494h-.894zm-1.314-1.971h.672c.467 0 .7-.189.7-.566.005-.077-.008-.154-.038-.227s-.075-.138-.134-.194a.777.777 0 0 0-.529-.152h-.68l.008 1.138zM24.157 27.917H22.52l-.289.752h-.862l1.504-3.696h.931l1.498 3.696h-.862l-.283-.752zm-.219-.566-.598-1.578-.598 1.578h1.197zM29.78 28.669h-.816l-1.829-2.542v2.542h-.814v-3.738h.814l1.829 2.557v-2.557h.816v3.738zM34.435 27.775a1.702 1.702 0 0 1-.738.659 2.6 2.6 0 0 1-1.147.236h-1.452v-3.738h1.452c.397-.009.791.07 1.147.23.312.144.57.371.738.652a2.024 2.024 0 0 1 0 1.962zm-.934-.09c.233-.248.361-.565.361-.892s-.128-.644-.361-.892a1.503 1.503 0 0 0-1.021-.318h-.566v2.42h.566c.373.021.74-.093 1.021-.318zM24.668 4.138s10.529 3.64 10.306 8.906v8.908s-10.521-3.641-10.302-8.908l-.004-8.906zM44.353 19.867a15.272 15.272 0 0 1 6.69-2.257v-2.789c-2.767.976-5.113 2.747-6.69 5.046z"/>
<path d="M43.159 20.707c1.628-3.001 4.449-5.316 7.884-6.47V6.202s-14.995 5.185-14.678 12.685V31.57s.668-.232 1.719-.667c0-.405 0-.814.048-1.225.31-3.482 2.118-6.709 5.026-8.97z" />
<path d="M41.733 25.419c.079-.88.255-1.75.525-2.597-1.811 1.953-2.907 4.377-3.135 6.93-.022.241-.034.482-.04.73a44.638 44.638 0 0 0 2.884-1.392 12.024 12.024 0 0 1-.233-3.672zM42.329 25.465a11.5 11.5 0 0 0 .185 3.326c4.097-2.244 8.7-5.712 8.523-9.904v-.365c-2.927.3-5.665 1.471-7.795 3.335a11.64 11.64 0 0 0-.913 3.609z" /></symbol><symbol id="icon-Logo-6" viewBox="0 0 64 32">
<path d="M32.257 16.601a1.774 1.774 0 0 1-.365-1.201v-1.741c0-.534.121-.939.363-1.217s.658-.416 1.247-.414c.554 0 .947.118 1.179.354.254.301.377.67.349 1.041v.409h-.991v-.414a2.05 2.05 0 0 0-.029-.406.389.389 0 0 0-.142-.241.573.573 0 0 0-.359-.094.607.607 0 0 0-.377.099.463.463 0 0 0-.164.266 2.073 2.073 0 0 0-.039.43v2.113c-.016.204.028.408.127.593.049.063.118.113.198.144s.168.043.256.033a.536.536 0 0 0 .351-.096.422.422 0 0 0 .148-.257c.023-.14.033-.282.031-.423v-.429h.991v.391c.028.387-.093.772-.343 1.094-.228.259-.615.388-1.186.388s-1.001-.138-1.245-.425zM36.382 16.619c-.25-.271-.375-.666-.375-1.188V13.6c0-.517.125-.909.375-1.174s.669-.398 1.255-.397c.583 0 .999.132 1.249.397.25.266.377.657.377 1.174v1.831c0 .517-.127.914-.382 1.186s-.669.409-1.245.409c-.576 0-1.003-.138-1.255-.407zm1.716-.44c.09-.17.13-.356.119-.542v-2.242a1 1 0 0 0-.117-.531c-.05-.064-.12-.115-.202-.146s-.172-.042-.261-.031c-.089-.011-.18 0-.262.031s-.153.082-.204.146a.975.975 0 0 0-.119.531v2.253a.997.997 0 0 0 .119.542c.058.057.129.103.209.134a.709.709 0 0 0 .51 0 .63.63 0 0 0 .209-.134v-.011zM40.455 12.082h1.067l.802 3.378.82-3.378h1.038l.105 4.877h-.767l-.082-3.389-.792 3.389h-.615l-.82-3.402-.076 3.402h-.775l.096-4.877zM45.482 12.082h1.661c.957 0 1.436.462 1.436 1.385 0 .884-.504 1.326-1.512 1.325h-.566v2.167h-1.026l.006-4.877zm1.42 2.084c.101.011.204.003.302-.024s.187-.071.262-.131a.793.793 0 0 0 .148-.551 1.542 1.542 0 0 0-.049-.443c-.015-.048-.04-.094-.075-.134s-.079-.073-.13-.098a1.058 1.058 0 0 0-.457-.078h-.398v1.457h.398zM50.059 12.082h1.101l1.13 4.877h-.956l-.224-1.124h-.983l-.23 1.124h-.97l1.13-4.877zM51 15.269l-.384-2.047-.384 2.047h.767zM53.203 12.082h.718l1.374 2.782v-2.782h.851v4.877h-.683l-1.382-2.904v2.904h-.88l.002-4.877zM58.14 15.099l-1.143-3.01h.962l.697 1.934.654-1.934h.941l-1.128 3.01v1.859h-.984v-1.859zM33.84 19.09v.255h-.837v1.982h-.351v-1.982h-.841v-.255h2.029zM36.464 21.327h-.271a.119.119 0 0 1-.076-.021.122.122 0 0 1-.045-.051l-.242-.531h-1.161l-.242.531a.15.15 0 0 1-.037.06.123.123 0 0 1-.076.021h-.271l1.026-2.236h.357l1.038 2.228zm-1.699-.83h.968l-.41-.91a1.61 1.61 0 0 1-.076-.211l-.039.119-.037.094-.406.908zM38.232 21.108a1.122 1.122 0 0 0 .357-.027 1.246 1.246 0 0 0 .285-.096v-.503h-.41a.082.082 0 0 1-.056-.018c-.007-.005-.012-.011-.016-.018s-.005-.015-.005-.022v-.172h.796v.857a1.528 1.528 0 0 1-.433.182c-.084.021-.17.037-.256.046-.099.01-.199.014-.299.014a1.582 1.582 0 0 1-.517-.083 1.249 1.249 0 0 1-.41-.234 1.09 1.09 0 0 1-.265-.354 1.101 1.101 0 0 1-.094-.464 1.17 1.17 0 0 1 .092-.468c.059-.133.149-.253.265-.354.117-.101.257-.18.41-.232.176-.057.362-.085.55-.083.096 0 .191.006.285.019.083.012.165.031.244.057a1.172 1.172 0 0 1 .383.205l-.098.138a.094.094 0 0 1-.08.043.14.14 0 0 1-.064-.018 1.268 1.268 0 0 1-.101-.053.876.876 0 0 0-.137-.06 1.312 1.312 0 0 0-.189-.05 1.514 1.514 0 0 0-.261-.019c-.135-.001-.27.02-.396.062a.778.778 0 0 0-.493.455 1.043 1.043 0 0 0 0 .746.872.872 0 0 0 .504.459c.13.039.269.054.406.044zM41.501 21.072h1.12v.255h-1.462V19.09h.351l-.008 1.982zM43.786 21.327h-.351V19.09h.351v2.237zM45.091 19.101c.021.01.039.024.053.041l1.499 1.686a.534.534 0 0 1 0-.08v-1.667h.306v2.246h-.176a.164.164 0 0 1-.076-.012.194.194 0 0 1-.055-.043l-1.497-1.684v1.739h-.293V19.09h.183c.02 0 .039.004.057.011zM49.531 19.09v.246h-1.243v.738h1.007v.237h-1.007v.763h1.243v.246h-1.604v-2.231h1.604zM12.777 5.278l15.574 3.818v13.378l-15.574-3.816V5.278zm-.999-1.14v15.17l17.57 4.308V8.447l-17.57-4.31z"/>
<path d="M21.195 30.659 3.623 26.347V11.178l17.572 4.31v15.171z"/>
<path d="m12.069 5.107 15.371 3.77-6.537 5.645L5.53 10.75l6.539-5.643zm-.291-.969-8.155 7.041 17.572 4.31 8.153-7.041-17.57-4.31zM22.183 29.806l7.165-6.187-7.165-1.758v7.945z"/></symbol><symbol id="icon-Logo" viewBox="0 0 64 32">
<path d="m22.943 4.279 4.231 4.005-7.854-.005v19.434h20.528v-7.43l4.226 4.001V4.279H22.942zm16.72 15.534L27.666 8.456h11.997v11.357zm-3.725 5.058H22.569v-13.07h.945v12.185h12.424v.885zm-10.212 5.43h.413l-.719 1.356v.79h-.374v-.79l-.721-1.356h.414l.494 1.017.494-1.017zm.621 2.146.174-.5h.831l.175.5h.389l-.812-2.146h-.335l-.811 2.146h.388zm.589-1.69.311.89h-.622l.311-.89zm1.967.838c.054-.084.161-.182.32-.296-.084-.105-.142-.195-.175-.268s-.049-.145-.049-.214c0-.168.051-.301.153-.398a.572.572 0 0 1 .413-.147c.156 0 .284.046.383.139.1.091.15.205.15.34 0 .089-.023.172-.068.248s-.119.149-.223.224l-.146.106.414.489a.856.856 0 0 0 .09-.394h.311c0 .264-.062.481-.186.65l.315.373h-.416l-.121-.143c-.153.115-.336.172-.548.172s-.382-.056-.51-.168a.562.562 0 0 1-.19-.441.49.49 0 0 1 .081-.273zm.968.475-.469-.553-.046.032c-.118.089-.177.192-.177.307 0 .099.032.18.096.242s.149.093.256.093c.121 0 .234-.04.339-.121zm-.385-.951.164-.112.046-.037a.264.264 0 0 0 .091-.208c0-.056-.021-.104-.063-.143s-.096-.06-.161-.06c-.07 0-.125.024-.167.071s-.062.107-.062.178c0 .083.051.186.152.311zm3.494 1.166c-.147.128-.343.192-.588.192a.843.843 0 0 1-.453-.121c-.13-.082-.23-.197-.301-.346s-.108-.323-.111-.52v-.201c0-.202.036-.381.108-.535s.174-.273.308-.357a.862.862 0 0 1 .466-.125c.237 0 .427.064.572.193s.228.311.252.545h-.371c-.018-.154-.063-.265-.136-.333-.072-.069-.177-.103-.317-.103a.435.435 0 0 0-.374.178c-.086.118-.131.291-.133.52v.19c0 .232.041.409.124.531s.205.183.366.183c.146 0 .256-.033.33-.099s.12-.175.14-.329h.371c-.022.229-.106.408-.254.536zm2.192-.301a.834.834 0 0 1-.313.366.863.863 0 0 1-.466.127.865.865 0 0 1-.466-.127c-.136-.086-.241-.207-.315-.364s-.111-.339-.112-.544v-.121c0-.209.037-.394.111-.554s.179-.283.314-.367c.136-.085.291-.128.466-.128s.33.042.464.127c.136.084.24.204.314.363s.111.341.112.55v.119c0 .21-.036.395-.109.554zm-.4-1.213a.439.439 0 0 0-.382-.19.442.442 0 0 0-.379.19c-.09.126-.137.304-.139.535v.124c0 .236.046.418.137.547s.22.193.383.193a.436.436 0 0 0 .38-.189c.089-.126.134-.31.134-.551v-.112c0-.238-.045-.42-.136-.547z" /></symbol><symbol id="icon-reloj-11" viewBox="0 0 31 32">
<path d="M29.317 13.732C29.315 6.147 23.165-.001 15.579 0S1.846 6.152 1.847 13.738a13.734 13.734 0 0 0 9.557 13.081.603.603 0 0 0 .475-.058.573.573 0 0 0 .254-.32l3.469-10.994a1.717 1.717 0 0 0-.018-3.434c-.255.001-.507.06-.736.172l-4.582-4.583a.572.572 0 0 0-.809.809l4.58 4.585a1.684 1.684 0 0 0 .481 2.072l-3.305 10.476c-6.531-2.406-9.876-9.651-7.47-16.182s9.651-9.876 16.182-7.47 9.876 9.651 7.47 16.182a12.603 12.603 0 0 1-6.697 7.156l-.357-1.682a.571.571 0 0 0-.94-.308l-3.443 3.074a.573.573 0 0 0 .207.973l4.396 1.403a.572.572 0 0 0 .735-.664l-.351-1.65a13.69 13.69 0 0 0 8.372-12.644zm-13.734-.572a.572.572 0 1 1 0 1.144.572.572 0 0 1 0-1.144zm1.885 13.339 1.96-1.748.541 2.549-2.501-.801z" style="fill:var(--color3, #212121)"/>
<path d="M15.01 2.858v1.145a.572.572 0 1 0 1.144 0V2.858a.572.572 0 1 0-1.144 0zM4.709 13.16a.572.572 0 1 0 0 1.144h1.145a.572.572 0 1 0 0-1.144H4.709zM26.456 14.304a.572.572 0 1 0 0-1.144h-1.145a.572.572 0 1 0 0 1.144h1.145z" style="fill:var(--color4, #2196f3)"/></symbol><symbol id="icon-facebook" viewBox="0 0 32 32">
<path d="M19 6h5V0h-5c-3.86 0-7 3.14-7 7v3H8v6h4v16h6V16h5l1-6h-6V7c0-.542.458-1 1-1z"/></symbol><symbol id="icon-instagram" viewBox="0 0 32 32">
<path d="M16 2.881c4.275 0 4.781.019 6.462.094 1.563.069 2.406.331 2.969.55a4.952 4.952 0 0 1 1.837 1.194 5.015 5.015 0 0 1 1.2 1.838c.219.563.481 1.412.55 2.969.075 1.688.094 2.194.094 6.463s-.019 4.781-.094 6.463c-.069 1.563-.331 2.406-.55 2.969a4.94 4.94 0 0 1-1.194 1.837 5.02 5.02 0 0 1-1.837 1.2c-.563.219-1.413.481-2.969.55-1.688.075-2.194.094-6.463.094s-4.781-.019-6.463-.094c-1.563-.069-2.406-.331-2.969-.55a4.952 4.952 0 0 1-1.838-1.194 5.02 5.02 0 0 1-1.2-1.837c-.219-.563-.481-1.413-.55-2.969-.075-1.688-.094-2.194-.094-6.463s.019-4.781.094-6.463c.069-1.563.331-2.406.55-2.969a4.964 4.964 0 0 1 1.194-1.838 5.015 5.015 0 0 1 1.838-1.2c.563-.219 1.412-.481 2.969-.55 1.681-.075 2.188-.094 6.463-.094zM16 0c-4.344 0-4.887.019-6.594.094-1.7.075-2.869.35-3.881.744-1.056.412-1.95.956-2.837 1.85a7.833 7.833 0 0 0-1.85 2.831C.444 6.538.169 7.7.094 9.4.019 11.113 0 11.656 0 16s.019 4.887.094 6.594c.075 1.7.35 2.869.744 3.881.413 1.056.956 1.95 1.85 2.837a7.82 7.82 0 0 0 2.831 1.844c1.019.394 2.181.669 3.881.744 1.706.075 2.25.094 6.594.094s4.888-.019 6.594-.094c1.7-.075 2.869-.35 3.881-.744 1.05-.406 1.944-.956 2.831-1.844s1.438-1.781 1.844-2.831c.394-1.019.669-2.181.744-3.881.075-1.706.094-2.25.094-6.594s-.019-4.887-.094-6.594c-.075-1.7-.35-2.869-.744-3.881a7.506 7.506 0 0 0-1.831-2.844A7.82 7.82 0 0 0 26.482.843C25.463.449 24.301.174 22.601.099c-1.712-.081-2.256-.1-6.6-.1z"/>
<path d="M16 7.781c-4.537 0-8.219 3.681-8.219 8.219s3.681 8.219 8.219 8.219 8.219-3.681 8.219-8.219A8.221 8.221 0 0 0 16 7.781zm0 13.55a5.331 5.331 0 1 1 0-10.663 5.331 5.331 0 0 1 0 10.663zM26.462 7.456a1.919 1.919 0 1 1-3.838 0 1.919 1.919 0 0 1 3.838 0z"/></symbol><symbol id="icon-twitter" viewBox="0 0 32 32">
<path d="M32 7.075a12.941 12.941 0 0 1-3.769 1.031 6.601 6.601 0 0 0 2.887-3.631 13.21 13.21 0 0 1-4.169 1.594A6.565 6.565 0 0 0 22.155 4a6.563 6.563 0 0 0-6.563 6.563c0 .512.056 1.012.169 1.494A18.635 18.635 0 0 1 2.23 5.195a6.56 6.56 0 0 0-.887 3.3 6.557 6.557 0 0 0 2.919 5.463 6.565 6.565 0 0 1-2.975-.819v.081a6.565 6.565 0 0 0 5.269 6.437 6.574 6.574 0 0 1-2.968.112 6.588 6.588 0 0 0 6.131 4.563 13.17 13.17 0 0 1-9.725 2.719 18.568 18.568 0 0 0 10.069 2.95c12.075 0 18.681-10.006 18.681-18.681 0-.287-.006-.569-.019-.85A13.216 13.216 0 0 0 32 7.076z"/></symbol><symbol id="icon-linkedin2" viewBox="0 0 32 32">
<path d="M12 12h5.535v2.837h.079c.77-1.381 2.655-2.837 5.464-2.837C28.92 12 30 15.637 30 20.367V30h-5.769v-8.54c0-2.037-.042-4.657-3.001-4.657-3.005 0-3.463 2.218-3.463 4.509V30H12V12zM2 12h6v18H2V12zM8 7a3 3 0 1 1-6 0 3 3 0 0 1 6 0z"/></symbol>
<symbol id="icon-close" viewBox="0 0 32 32">
<path d="M26.667 7.303l-1.97-1.97-7.808 7.808-7.808-7.808-1.97 1.97 7.808 7.808-7.808 7.808 1.97 1.97 7.808-7.808 7.808 7.808 1.97-1.97-7.808-7.808 7.808-7.808z"></path>
</symbol>
<symbol id="icon-correo-electronico-negro" viewBox="0 0 32 32">
<path d="M26.667 5.333h-21.333c-1.467 0-2.653 1.2-2.653 2.667l-0.013 16c0 1.467 1.2 2.667 2.667 2.667h21.333c1.467 0 2.667-1.2 2.667-2.667v-16c0-1.467-1.2-2.667-2.667-2.667zM26.133 11l-9.427 5.893c-0.427 0.267-0.987 0.267-1.413 0l-9.427-5.893c-0.333-0.213-0.533-0.573-0.533-0.96 0-0.893 0.973-1.427 1.733-0.96l8.933 5.587 8.933-5.587c0.76-0.467 1.733 0.067 1.733 0.96 0 0.387-0.2 0.747-0.533 0.96z"></path>
</symbol>
<symbol id="icon-persona-negra" viewBox="0 0 32 32">
<path d="M16 16c2.947 0 5.333-2.387 5.333-5.333s-2.387-5.333-5.333-5.333c-2.947 0-5.333 2.387-5.333 5.333s2.387 5.333 5.333 5.333zM16 18.667c-3.56 0-10.667 1.787-10.667 5.333v1.333c0 0.733 0.6 1.333 1.333 1.333h18.667c0.733 0 1.333-0.6 1.333-1.333v-1.333c0-3.547-7.107-5.333-10.667-5.333z"></path>
</symbol>
<symbol id="icon-telefono-negro" viewBox="0 0 32 32">
<path d="M24.882 19.773l-3.268-0.373c-0.785-0.090-1.557 0.18-2.11 0.733l-2.367 2.367c-3.641-1.853-6.626-4.825-8.478-8.478l2.38-2.38c0.553-0.553 0.823-1.325 0.733-2.11l-0.373-3.242c-0.154-1.299-1.248-2.277-2.56-2.277h-2.226c-1.454 0-2.663 1.209-2.573 2.663 0.682 10.987 9.469 19.761 20.443 20.443 1.454 0.090 2.663-1.119 2.663-2.573v-2.226c0.013-1.299-0.965-2.393-2.264-2.547v0z"></path>
</symbol>
<symbol id="icon-enviar-icono" viewBox="0 0 32 32">
<path fill="#fff" style="fill: var(--color1, #fff)" d="M32 0l-32 18 10.227 3.788 15.773-14.788-11.998 16.186 0.010 0.004-0.012-0.004v8.814l5.735-6.691 7.265 2.691 5-28z"></path></defs></svg>

